<svg xmlns="http://www.w3.org/2000/svg" width="80" height="80" fill="none" viewBox="0 0 80 80"><g clip-path="url(#a-logo)"><rect width="80" height="80" fill="url(#b-logo)" rx="18.261"></rect><rect width="79" height="79" x="0.5" y="0.5" stroke="#fff" stroke-opacity="0.08" rx="17.761"></rect><g filter="url(#c-logo)" style="mix-blend-mode:color-dodge"><path fill="url(#d-logo)" fill-opacity="0.5" fill-rule="evenodd" d="M40 15L60 26v28L40 65L20 54V26L40 15z M40 18L22 26.5v25L40 61L58 52.5v-25L40 18z M40 18v43M20 26L40 38L60 26M40 38v23" clip-rule="evenodd"></path></g><g><path fill="url(#e-logo)" stroke="url(#f-logo)" stroke-width="1.5" stroke-linejoin="round" d="M40 18L58 27L40 36L22 27L40 18z"></path><path fill="url(#g-logo)" stroke="url(#f-logo)" stroke-width="1.5" stroke-linejoin="round" d="M22 27v25L40 61V36L22 27z"></path><path fill="url(#h-logo)" stroke="url(#f-logo)" stroke-width="1.5" stroke-linejoin="round" d="M40 36v25L58 52V27L40 36z"></path></g></g><defs><linearGradient id="b-logo" x1="40" x2="40" y1="0" y2="80" gradientUnits="userSpaceOnUse"><stop stop-color="#272727"></stop><stop offset="1" stop-color="#141414"></stop></linearGradient><linearGradient id="d-logo" x1="65.652" x2="13.043" y1="12.174" y2="81.522" gradientUnits="userSpaceOnUse"><stop stop-color="#6366F1"></stop><stop offset="0.5" stop-color="#8B5CF6"></stop><stop offset="1" stop-color="#A855F7"></stop></linearGradient><linearGradient id="e-logo" x1="40" x2="40" y1="18" y2="36" gradientUnits="userSpaceOnUse"><stop stop-color="#A78BFA"></stop><stop offset="1" stop-color="#8B5CF6"></stop></linearGradient><linearGradient id="g-logo" x1="22" x2="40" y1="27" y2="61" gradientUnits="userSpaceOnUse"><stop stop-color="#7C3AED"></stop><stop offset="1" stop-color="#5B21B6"></stop></linearGradient><linearGradient id="h-logo" x1="58" x2="40" y1="27" y2="61" gradientUnits="userSpaceOnUse"><stop stop-color="#5B21B6"></stop><stop offset="1" stop-color="#3B0764"></stop></linearGradient><linearGradient id="f-logo" x1="40" x2="40" y1="18" y2="61" gradientUnits="userSpaceOnUse"><stop stop-color="#C4B5FD"></stop><stop offset="0.5" stop-color="#A78BFA"></stop><stop offset="1" stop-color="#7C3AED"></stop></linearGradient><clipPath id="a-logo"><path fill="#fff" d="M0 0h80v80H0z"></path></clipPath><filter id="c-logo" width="60.435" height="78.261" x="10" y="8.696" color-interpolation-filters="sRGB" filterUnits="userSpaceOnUse"><feFlood flood-opacity="0" result="BackgroundImageFix"></feFlood><feBlend in="SourceGraphic" in2="BackgroundImageFix" result="shape"></feBlend><feGaussianBlur result="effect1_foregroundBlur_1542_6865" stdDeviation="5.435"></feGaussianBlur></filter></defs></svg>