<svg width="400" height="600" viewBox="0 0 400 600" fill="none" xmlns="http://www.w3.org/2000/svg">
<path fill-rule="evenodd" clip-rule="evenodd" d="M300 500H200L250 550L300 600V500Z" fill="#D9D9D9"/>
<path d="M300 600V500H400V600H300Z" fill="#D9D9D9"/>
<path fill-rule="evenodd" clip-rule="evenodd" d="M300 500H200L250 550L300 600V500Z" fill="#D9D9D9"/>
<path d="M300 600V500H400V600H300Z" fill="#D9D9D9"/>
<path fill-rule="evenodd" clip-rule="evenodd" d="M300 500H200L250 550L300 600V500Z" fill="#D9D9D9"/>
<path d="M300 600V500H400V600H300Z" fill="#D9D9D9"/>
<path fill-rule="evenodd" clip-rule="evenodd" d="M200 400H100L150 450L200 500V400Z" fill="#D9D9D9"/>
<path d="M200 500V400H300V500H200Z" fill="#D9D9D9"/>
<path fill-rule="evenodd" clip-rule="evenodd" d="M300 400V500H400L300 400Z" fill="#D9D9D9"/>
<path fill-rule="evenodd" clip-rule="evenodd" d="M50 350L0 300H100V400L50 350Z" fill="#D9D9D9"/>
<path fill-rule="evenodd" clip-rule="evenodd" d="M200 400L150 350L100 300V400H200Z" fill="#D9D9D9"/>
<path fill-rule="evenodd" clip-rule="evenodd" d="M100 200L50 250L0 300H100V200Z" fill="#D9D9D9"/>
<path fill-rule="evenodd" clip-rule="evenodd" d="M150 250L100 300V200H200L150 250Z" fill="#D9D9D9"/>
<path fill-rule="evenodd" clip-rule="evenodd" d="M300 300V200L200 300H250H300Z" fill="#D9D9D9"/>
<path fill-rule="evenodd" clip-rule="evenodd" d="M400 300L350 250L300 200V300H400Z" fill="#D9D9D9"/>
<path fill-rule="evenodd" clip-rule="evenodd" d="M200 200V100L150 150L100 200H200Z" fill="#D9D9D9"/>
<path d="M200 200V100H300V200H200Z" fill="#D9D9D9"/>
<path fill-rule="evenodd" clip-rule="evenodd" d="M300 100V200L400 100H300Z" fill="#D9D9D9"/>
<path fill-rule="evenodd" clip-rule="evenodd" d="M300 100V0L250 50L200 100H300Z" fill="#D9D9D9"/>
<path d="M300 100V0H400V100H300Z" fill="#D9D9D9"/>
<path fill-rule="evenodd" clip-rule="evenodd" d="M350 350L300 400V300H400L350 350Z" fill="#D9D9D9"/>
<path d="M200 300H250H300V400L200 300Z" fill="#D9D9D9"/>
<path fill-rule="evenodd" clip-rule="evenodd" d="M300 500H200L250 550L300 600V500Z" fill="#F4F4F5"/>
<path d="M300 600V500H400V600H300Z" fill="#F4F4F5"/>
<path fill-rule="evenodd" clip-rule="evenodd" d="M300 500H200L250 550L300 600V500Z" fill="#F4F4F5"/>
<path d="M300 600V500H400V600H300Z" fill="#F4F4F5"/>
<path fill-rule="evenodd" clip-rule="evenodd" d="M300 500H200L250 550L300 600V500Z" fill="#F4F4F5"/>
<path d="M300 600V500H400V600H300Z" fill="#F4F4F5"/>
<path fill-rule="evenodd" clip-rule="evenodd" d="M200 400H100L150 450L200 500V400Z" fill="#F4F4F5"/>
<path d="M200 500V400H300V500H200Z" fill="#F4F4F5"/>
<path fill-rule="evenodd" clip-rule="evenodd" d="M300 400V500H400L300 400Z" fill="#F4F4F5"/>
<path fill-rule="evenodd" clip-rule="evenodd" d="M50 350L0 300H100V400L50 350Z" fill="#F4F4F5"/>
<path fill-rule="evenodd" clip-rule="evenodd" d="M200 400L150 350L100 300V400H200Z" fill="#F4F4F5"/>
<path fill-rule="evenodd" clip-rule="evenodd" d="M100 200L50 250L0 300H100V200Z" fill="#F4F4F5"/>
<path fill-rule="evenodd" clip-rule="evenodd" d="M150 250L100 300V200H200L150 250Z" fill="#F4F4F5"/>
<path fill-rule="evenodd" clip-rule="evenodd" d="M300 300V200L200 300H250H300Z" fill="#F4F4F5"/>
<path fill-rule="evenodd" clip-rule="evenodd" d="M400 300L350 250L300 200V300H400Z" fill="#F4F4F5"/>
<path fill-rule="evenodd" clip-rule="evenodd" d="M200 200V100L150 150L100 200H200Z" fill="#F4F4F5"/>
<path d="M200 200V100H300V200H200Z" fill="#F4F4F5"/>
<path fill-rule="evenodd" clip-rule="evenodd" d="M300 100V200L400 100H300Z" fill="#F4F4F5"/>
<path fill-rule="evenodd" clip-rule="evenodd" d="M300 100V0L250 50L200 100H300Z" fill="#F4F4F5"/>
<path d="M300 100V0H400V100H300Z" fill="#F4F4F5"/>
<path fill-rule="evenodd" clip-rule="evenodd" d="M350 350L300 400V300H400L350 350Z" fill="#F4F4F5"/>
<path d="M200 300H250H300V400L200 300Z" fill="#F4F4F5"/>
</svg>
